<svg width="56" height="56" viewBox="0 0 56 56" fill="none" xmlns="http://www.w3.org/2000/svg">
<g clip-path="url(#clip0_2844_4384)">
<path d="M0 19.6C0 12.7394 0 9.30904 1.33517 6.68862C2.50962 4.38363 4.38363 2.50962 6.68862 1.33517C9.30904 0 12.7394 0 19.6 0H36.4C43.2606 0 46.691 0 49.3114 1.33517C51.6164 2.50962 53.4904 4.38363 54.6648 6.68862C56 9.30904 56 12.7394 56 19.6V36.4C56 43.2606 56 46.691 54.6648 49.3114C53.4904 51.6164 51.6164 53.4904 49.3114 54.6648C46.691 56 43.2606 56 36.4 56H19.6C12.7394 56 9.30904 56 6.68862 54.6648C4.38363 53.4904 2.50962 51.6164 1.33517 49.3114C0 46.691 0 43.2606 0 36.4V19.6Z" fill="#FF402E"/>
<path d="M6.06205 42.4751H9.31917C8.95727 44.996 11.0452 46.7435 14.0517 46.7435C16.251 46.7435 18.5894 45.7981 18.5894 43.7929C18.5894 41.9022 16.4459 41.4438 14.7199 41.1287L13.662 40.9282C10.21 40.2693 8.17778 38.9516 8.17778 36.0869C8.17778 32.2769 11.7411 30.0711 16.0283 30.0711C20.4268 30.0711 23.2106 32.2769 22.7096 36.0296H19.6473C19.87 33.9671 18.0327 32.7925 15.6942 32.7925C13.5506 32.7925 11.4349 33.7952 11.4349 35.6859C11.4349 37.2901 12.9104 37.7771 15.2488 38.2068L15.8612 38.3214C19.174 38.9516 21.9857 40.0974 21.9857 43.535C21.9857 47.4883 18.2275 49.7227 13.8569 49.7227C9.09646 49.7227 5.47744 47.0586 6.06205 42.4751ZM44.6186 23.11V49.4649H47.82V23.11H44.6186ZM32.4531 46.5143L43.0039 32.9358V30.3003H28.9176V33.2509H38.9673L28.4443 46.8294V49.4649H43.4772V46.5143H32.4531ZM23.9623 30.3003V49.4649H27.1916V30.3003H23.9623Z" fill="white"/>
</g>
<defs>
<clipPath id="clip0_2844_4384">
<rect width="56" height="56" rx="10" fill="white"/>
</clipPath>
</defs>
</svg>
